<svg width="121" height="119" viewBox="0 0 121 119" fill="none" xmlns="http://www.w3.org/2000/svg">
<path d="M60.5 1.5C93.1085 1.5 119.5 27.491 119.5 59.5C119.5 91.509 93.1085 117.5 60.5 117.5C27.8915 117.5 1.5 91.509 1.5 59.5C1.5 27.491 27.8915 1.5 60.5 1.5Z" stroke="black" stroke-width="3"/>
<path d="M51.472 43.928C52.528 45.56 53.376 47.432 54.016 49.544C54.656 51.624 54.976 53.752 54.976 55.928C54.976 58.52 54.528 60.984 53.632 63.32C52.768 65.656 51.456 67.56 49.696 69.032C47.968 70.504 45.856 71.24 43.36 71.24C41.024 71.24 38.88 70.648 36.928 69.464C34.976 68.248 33.504 66.84 32.512 65.24C31.776 64.056 31.216 62.728 30.832 61.256C30.448 59.752 30.256 58.248 30.256 56.744C30.256 54.12 30.8 51.56 31.888 49.064C33.008 46.568 34.544 44.568 36.496 43.064C38.352 41.688 40.48 41 42.88 41C45.536 41 48.4 41.976 51.472 43.928ZM38.608 47.24C38.32 47.72 38.032 48.152 37.744 48.536C37.04 49.592 36.528 50.488 36.208 51.224C35.888 51.928 35.6 53.016 35.344 54.488C35.216 55.16 35.152 55.944 35.152 56.84C35.152 59.112 35.6 61.08 36.496 62.744C37.424 64.376 38.688 65.48 40.288 66.056C41.056 66.344 41.92 66.488 42.88 66.488C45.28 66.488 47.088 65.432 48.304 63.32C49.552 61.176 50.176 58.536 50.176 55.4C50.176 52.488 49.632 50.104 48.544 48.248C47.456 46.36 45.776 45.416 43.504 45.416C42.576 45.416 41.776 45.56 41.104 45.848C40.464 46.136 39.632 46.6 38.608 47.24ZM85.4181 40.184C85.8661 40.184 86.2021 40.36 86.4261 40.712C86.6501 41.064 86.7621 41.464 86.7621 41.912C86.7621 42.52 86.5061 43.128 85.9941 43.736L84.1221 46.136C80.4741 50.904 77.5461 54.856 75.3381 57.992C73.1301 61.128 71.0021 64.568 68.9541 68.312C67.9621 70.232 66.8261 71.192 65.5461 71.192C64.9701 71.192 64.4581 71.048 64.0101 70.76C63.5621 70.44 63.3381 69.912 63.3381 69.176C63.3381 68.696 63.4821 68.296 63.7701 67.976C64.8261 66.472 66.7141 63.672 69.4341 59.576C71.9941 55.768 74.1061 52.664 75.7701 50.264C77.4661 47.832 79.1141 45.624 80.7141 43.64C80.8421 43.48 81.1461 43.08 81.6261 42.44C82.1381 41.8 82.7141 41.272 83.3541 40.856C83.9941 40.408 84.6821 40.184 85.4181 40.184ZM66.4101 40.712C67.3701 40.712 68.3461 40.936 69.3381 41.384C70.3621 41.832 71.2101 42.472 71.8821 43.304C72.5541 44.104 72.8901 45 72.8901 45.992C72.8901 47.4 72.5861 48.68 71.9781 49.832C71.3701 50.984 70.5381 51.896 69.4821 52.568C68.4261 53.208 67.2581 53.528 65.9781 53.528C63.9621 53.528 62.3461 52.936 61.1301 51.752C59.9141 50.536 59.3061 48.952 59.3061 47C59.3061 44.952 59.9301 43.4 61.1781 42.344C62.4581 41.256 64.2021 40.712 66.4101 40.712ZM65.3541 49.88C67.6581 49.88 68.8101 48.648 68.8101 46.184C68.8101 45.576 68.5861 45.128 68.1381 44.84C67.7221 44.552 67.0501 44.408 66.1221 44.408C65.0981 44.408 64.3141 44.68 63.7701 45.224C63.2581 45.736 63.0021 46.328 63.0021 47C63.0021 47.736 63.2261 48.408 63.6741 49.016C64.1221 49.592 64.6821 49.88 65.3541 49.88ZM89.7381 64.28C89.7381 65.528 89.3861 66.648 88.6821 67.64C88.0101 68.6 87.0981 69.352 85.9461 69.896C84.8261 70.44 83.6421 70.712 82.3941 70.712C81.3381 70.712 80.3461 70.456 79.4181 69.944C78.4901 69.4 77.7381 68.664 77.1621 67.736C76.6181 66.808 76.3461 65.768 76.3461 64.616C76.3461 63.432 76.6341 62.312 77.2101 61.256C77.8181 60.2 78.6821 59.352 79.8021 58.712C80.9221 58.04 82.2341 57.704 83.7381 57.704C85.6901 57.704 87.1781 58.28 88.2021 59.432C89.2261 60.552 89.7381 62.168 89.7381 64.28ZM83.3541 61.352C82.4261 61.352 81.6741 61.592 81.0981 62.072C80.5541 62.552 80.2821 63.304 80.2821 64.328C80.2821 65.224 80.5061 65.912 80.9541 66.392C81.4021 66.872 81.8821 67.112 82.3941 67.112C84.8581 67.112 86.0901 66.008 86.0901 63.8C86.0901 63.064 85.8501 62.472 85.3701 62.024C84.8901 61.576 84.2181 61.352 83.3541 61.352Z" fill="black"/>
</svg>
