<svg width="121" height="119" viewBox="0 0 121 119" fill="none" xmlns="http://www.w3.org/2000/svg">
<path d="M60.5 1.5C93.1085 1.5 119.5 27.491 119.5 59.5C119.5 91.509 93.1085 117.5 60.5 117.5C27.8915 117.5 1.5 91.509 1.5 59.5C1.5 27.491 27.8915 1.5 60.5 1.5Z" stroke="black" stroke-width="3"/>
<path d="M37.12 45.848C36.896 46.744 36.752 47.928 36.688 49.4C36.624 50.68 36.528 51.64 36.4 52.28C37.328 51.896 38.208 51.656 39.04 51.56C39.872 51.432 40.928 51.368 42.208 51.368C44.192 51.368 45.92 51.832 47.392 52.76C48.864 53.656 49.984 54.872 50.752 56.408C51.52 57.912 51.904 59.528 51.904 61.256C51.904 61.928 51.68 62.84 51.232 63.992C50.784 65.112 50.32 65.976 49.84 66.584C48.72 68.056 47.424 69.192 45.952 69.992C44.48 70.76 42.88 71.144 41.152 71.144C39.84 71.144 38.64 70.968 37.552 70.616C36.496 70.232 35.36 69.72 34.144 69.08C32.896 68.408 31.984 67.72 31.408 67.016C30.864 66.28 30.592 65.368 30.592 64.28C30.592 63.704 30.832 63.24 31.312 62.888C31.824 62.504 32.304 62.312 32.752 62.312C33.04 62.312 33.296 62.392 33.52 62.552C33.744 62.712 34.112 63.032 34.624 63.512L35.824 64.664C36.592 65.304 37.344 65.784 38.08 66.104C38.848 66.424 39.776 66.584 40.864 66.584C41.856 66.584 42.656 66.456 43.264 66.2C44.48 65.72 45.424 65.096 46.096 64.328C46.8 63.56 47.152 62.328 47.152 60.632C47.152 59 46.608 57.736 45.52 56.84C44.432 55.912 42.592 55.448 40 55.448C39.648 55.448 39.136 55.544 38.464 55.736C37.792 55.928 37.136 56.136 36.496 56.36C34.96 56.872 34.016 57.128 33.664 57.128C33.216 57.128 32.768 56.936 32.32 56.552C31.872 56.168 31.648 55.656 31.648 55.016C32.224 51.144 32.512 47.928 32.512 45.368L32.464 44.168C32.4 43.592 32.368 43.112 32.368 42.728C32.368 42.152 32.672 41.72 33.28 41.432C33.92 41.112 34.576 40.952 35.248 40.952C35.824 40.952 37.072 41.048 38.992 41.24L41.296 41.432C41.584 41.464 42.016 41.48 42.592 41.48L44.368 41.432C44.72 41.4 45.232 41.384 45.904 41.384C46.864 41.384 47.664 41.528 48.304 41.816C48.944 42.104 49.264 42.568 49.264 43.208C49.264 44.2 49.104 44.92 48.784 45.368C48.464 45.816 48.096 46.04 47.68 46.04C47.296 46.04 46.656 45.976 45.76 45.848C44.576 45.72 43.184 45.656 41.584 45.656C40.464 45.656 38.976 45.72 37.12 45.848ZM81.0588 40.184C81.5068 40.184 81.8428 40.36 82.0668 40.712C82.2908 41.064 82.4028 41.464 82.4028 41.912C82.4028 42.52 82.1468 43.128 81.6348 43.736L79.7628 46.136C76.1148 50.904 73.1868 54.856 70.9788 57.992C68.7708 61.128 66.6428 64.568 64.5948 68.312C63.6028 70.232 62.4668 71.192 61.1868 71.192C60.6108 71.192 60.0988 71.048 59.6508 70.76C59.2028 70.44 58.9788 69.912 58.9788 69.176C58.9788 68.696 59.1228 68.296 59.4108 67.976C60.4668 66.472 62.3548 63.672 65.0748 59.576C67.6348 55.768 69.7468 52.664 71.4108 50.264C73.1068 47.832 74.7548 45.624 76.3548 43.64C76.4828 43.48 76.7868 43.08 77.2668 42.44C77.7788 41.8 78.3548 41.272 78.9948 40.856C79.6348 40.408 80.3228 40.184 81.0588 40.184ZM62.0508 40.712C63.0108 40.712 63.9868 40.936 64.9788 41.384C66.0028 41.832 66.8508 42.472 67.5228 43.304C68.1948 44.104 68.5308 45 68.5308 45.992C68.5308 47.4 68.2268 48.68 67.6188 49.832C67.0108 50.984 66.1788 51.896 65.1228 52.568C64.0668 53.208 62.8988 53.528 61.6188 53.528C59.6028 53.528 57.9868 52.936 56.7708 51.752C55.5548 50.536 54.9468 48.952 54.9468 47C54.9468 44.952 55.5708 43.4 56.8188 42.344C58.0988 41.256 59.8428 40.712 62.0508 40.712ZM60.9948 49.88C63.2988 49.88 64.4508 48.648 64.4508 46.184C64.4508 45.576 64.2268 45.128 63.7788 44.84C63.3628 44.552 62.6908 44.408 61.7628 44.408C60.7388 44.408 59.9548 44.68 59.4108 45.224C58.8988 45.736 58.6428 46.328 58.6428 47C58.6428 47.736 58.8668 48.408 59.3148 49.016C59.7628 49.592 60.3228 49.88 60.9948 49.88ZM85.3788 64.28C85.3788 65.528 85.0268 66.648 84.3228 67.64C83.6508 68.6 82.7388 69.352 81.5868 69.896C80.4668 70.44 79.2828 70.712 78.0348 70.712C76.9788 70.712 75.9868 70.456 75.0588 69.944C74.1308 69.4 73.3788 68.664 72.8028 67.736C72.2588 66.808 71.9868 65.768 71.9868 64.616C71.9868 63.432 72.2748 62.312 72.8508 61.256C73.4588 60.2 74.3228 59.352 75.4428 58.712C76.5628 58.04 77.8748 57.704 79.3788 57.704C81.3308 57.704 82.8188 58.28 83.8428 59.432C84.8668 60.552 85.3788 62.168 85.3788 64.28ZM78.9948 61.352C78.0668 61.352 77.3148 61.592 76.7388 62.072C76.1948 62.552 75.9228 63.304 75.9228 64.328C75.9228 65.224 76.1468 65.912 76.5948 66.392C77.0428 66.872 77.5228 67.112 78.0348 67.112C80.4988 67.112 81.7308 66.008 81.7308 63.8C81.7308 63.064 81.4908 62.472 81.0108 62.024C80.5308 61.576 79.8588 61.352 78.9948 61.352Z" fill="black"/>
</svg>
