<svg width="286" height="286" viewBox="0 0 286 286" fill="none" xmlns="http://www.w3.org/2000/svg">
<path d="M143 47.6667C136.418 47.6667 131.083 42.3313 131.083 35.75C131.083 29.1687 136.418 23.8333 143 23.8333H238.333C251.496 23.8333 262.167 34.5039 262.167 47.6667V143C262.167 149.582 256.832 154.917 250.25 154.917C243.668 154.917 238.333 149.582 238.333 143V64.2717L44.4251 258.181C39.7714 262.834 32.2261 262.834 27.5724 258.181C22.9186 253.526 22.9186 245.981 27.5724 241.327L221.233 47.6667H143Z" fill="#0F0F0F"/>
<path d="M89 122C100.046 122 109 113.046 109 102C109 90.9543 100.046 82 89 82C77.9543 82 69 90.9543 69 102C69 113.046 77.9543 122 89 122Z" stroke="black" stroke-width="10"/>
<path d="M197 215C208.046 215 217 206.046 217 195C217 183.954 208.046 175 197 175C185.954 175 177 183.954 177 195C177 206.046 185.954 215 197 215Z" stroke="black" stroke-width="10"/>
</svg>
