<svg width="124" height="124" viewBox="0 0 124 124" fill="none" xmlns="http://www.w3.org/2000/svg">
<path fill-rule="evenodd" clip-rule="evenodd" d="M106.667 0.583344C115.918 0.583344 123.417 8.0826 123.417 17.3333V106.667C123.417 115.918 115.918 123.417 106.667 123.417H17.3334C8.08263 123.417 0.583374 115.918 0.583374 106.667V17.3333C0.583374 8.0826 8.08263 0.583344 17.3334 0.583344H106.667ZM106.667 11.75C109.75 11.75 112.25 14.2498 112.25 17.3333V106.667C112.25 109.75 109.75 112.25 106.667 112.25H78.75V73.1661H90.3422C92.7452 73.1661 94.8786 71.6285 95.6391 69.3482L98.1125 61.928C99.0164 59.2162 96.998 56.4161 94.1399 56.4161H78.75V45.2496C78.75 42.4579 81.5417 39.6662 84.3334 39.6662H95.5C98.5837 39.6662 101.083 37.1665 101.083 34.0829V30.2528C101.083 28.4493 99.9315 26.8323 98.1873 26.372C90.8687 24.4406 84.3334 24.4406 84.3334 24.4406C70.375 24.4406 62 34.0829 62 42.4579V56.4161H50.8334C47.7498 56.4161 45.25 58.9158 45.25 61.9994V67.5828C45.25 70.6665 47.7498 73.1661 50.8334 73.1661H62V112.25H17.3334C14.2498 112.25 11.75 109.75 11.75 106.667V17.3333C11.75 14.2498 14.2498 11.75 17.3334 11.75H106.667Z" fill="black"/>
</svg>
