<svg width="124" height="124" viewBox="0 0 124 124" fill="none" xmlns="http://www.w3.org/2000/svg">
<path d="M31.2916 39.6667C35.917 39.6667 39.6666 35.9171 39.6666 31.2917C39.6666 26.6663 35.917 22.9167 31.2916 22.9167C26.6662 22.9167 22.9166 26.6663 22.9166 31.2917C22.9166 35.9171 26.6662 39.6667 31.2916 39.6667Z" fill="black"/>
<path d="M22.9166 50.8333C22.9166 47.7498 25.4164 45.25 28.5 45.25H34.0833C37.1669 45.25 39.6666 47.7497 39.6666 50.8333V95.5C39.6666 98.5837 37.1669 101.083 34.0833 101.083H28.5C25.4164 101.083 22.9166 98.5837 22.9166 95.5V50.8333Z" fill="black"/>
<path d="M56.4167 101.083H62C65.0837 101.083 67.5834 98.5837 67.5834 95.5V70.375C67.5834 62 84.3334 56.4167 84.3334 67.5833V95.5022C84.3334 98.5859 86.833 101.083 89.9167 101.083H95.5C98.5837 101.083 101.083 98.5837 101.083 95.5V62C101.083 50.8333 92.7084 45.25 81.5417 45.25C70.375 45.25 67.5834 53.625 67.5834 53.625V50.8333C67.5834 47.7497 65.0837 45.25 62 45.25H56.4167C53.333 45.25 50.8334 47.7498 50.8334 50.8333V95.5C50.8334 98.5837 53.333 101.083 56.4167 101.083Z" fill="black"/>
<path fill-rule="evenodd" clip-rule="evenodd" d="M106.667 0.583344C115.918 0.583344 123.417 8.0826 123.417 17.3333V106.667C123.417 115.918 115.918 123.417 106.667 123.417H17.3334C8.08263 123.417 0.583374 115.918 0.583374 106.667V17.3333C0.583374 8.0826 8.08263 0.583344 17.3334 0.583344H106.667ZM106.667 11.75C109.75 11.75 112.25 14.2498 112.25 17.3333V106.667C112.25 109.75 109.75 112.25 106.667 112.25H17.3334C14.2498 112.25 11.75 109.75 11.75 106.667V17.3333C11.75 14.2498 14.2498 11.75 17.3334 11.75H106.667Z" fill="black"/>
</svg>
