<svg width="134" height="108" viewBox="0 0 134 108" fill="none" xmlns="http://www.w3.org/2000/svg">
<path fill-rule="evenodd" clip-rule="evenodd" d="M42.143 107.599C92.7079 107.599 120.365 66.3505 120.365 30.5846C120.365 29.4104 120.365 28.2451 120.285 27.0841C125.665 23.2581 130.308 18.5078 134 13.0723C128.988 15.2624 123.662 16.6986 118.215 17.3318C123.95 13.9479 128.245 8.63145 130.302 2.35824C124.901 5.51133 118.999 7.73664 112.841 8.93065C102.43 -1.9667 85.0163 -2.49468 73.9412 7.75619C66.8057 14.3658 63.7706 24.2206 65.9883 33.6205C43.885 32.5256 23.2892 22.2485 9.3264 5.34183C2.0301 17.7101 5.762 33.5267 17.8421 41.4688C13.467 41.3435 9.1857 40.1838 5.36 38.0861V38.4296C5.3667 51.3125 14.5926 62.4053 27.4164 64.9581C23.3696 66.0465 19.1218 66.2043 15.008 65.4194C18.6059 76.4486 28.9306 84.0029 40.6891 84.2206C30.954 91.7537 18.9275 95.8442 6.5459 95.8311C4.3617 95.8245 2.1775 95.699 0 95.4418C12.5759 103.384 27.202 107.599 42.143 107.579" fill="black"/>
</svg>
