<svg width="141" height="152" viewBox="0 0 141 152" fill="none" xmlns="http://www.w3.org/2000/svg">
<g clip-path="url(#clip0_18_25)">
<path d="M68.6475 0.133612C66.0894 0.525323 62.8262 2.3533 61.0769 4.31185C59.2754 6.37486 57.9441 9.848 57.9441 12.4855C57.9441 17.5516 61.7816 22.5655 66.8986 24.2107C67.5775 24.4457 67.9169 24.733 68.021 25.203C68.1255 25.5425 68.1255 32.8283 68.0473 41.3939C67.8646 58.1326 67.8646 58.1326 69.1959 59.0729C70.1096 59.6997 71.1279 59.5952 72.0938 58.7334L72.9553 57.9762V41.4198V24.8897L75.2526 23.7668C81.4919 20.7898 84.3635 14.3918 82.2489 8.25507C80.9176 4.3902 77.5239 1.28263 73.5819 0.342524C72.0153 -0.0230714 70.1096 -0.101413 68.6475 0.133612Z" fill="black"/>
<path d="M43.4293 13.1123C41.889 13.6084 36.1457 16.6377 33.4568 18.3873C28.7054 21.4949 23.3276 26.1432 22.3878 28.0234C20.7692 31.1831 22.8577 35.1002 26.3037 35.3875C27.8178 35.518 28.7576 34.9958 32.9085 31.7054C36.6156 28.7807 40.0093 26.561 43.9776 24.498C47.3713 22.7222 48.7812 21.5732 49.5904 19.928C50.8435 17.3428 49.6426 14.2874 46.9274 13.1384C45.7788 12.6683 44.8914 12.6683 43.4293 13.1123Z" fill="black"/>
<path d="M94.6758 13.0078C91.8042 13.8695 90.3162 17.3688 91.5952 20.1892C92.274 21.7038 93.6053 22.7483 97.1298 24.4979C100.811 26.3259 105.249 29.3029 109.243 32.5933C112.376 35.1785 113.368 35.6225 115.273 35.3353C116.318 35.1786 116.761 34.9174 117.754 33.9512C119.79 31.9143 120.025 29.6163 118.459 27.266C117.649 26.0125 114.282 23.0095 110.94 20.5286C105.98 16.8204 97.8346 12.6683 95.8244 12.7728C95.5895 12.7728 95.0675 12.9033 94.6758 13.0078Z" fill="black"/>
<path d="M54.159 29.2507C52.7754 29.6424 50.53 31.8882 50.1387 33.2722C49.2773 36.3537 50.5563 39.174 53.4801 40.6885C54.4984 41.2108 56.8738 41.1066 58.0747 40.4799C59.2756 39.853 60.5809 38.5734 61.1816 37.3721C61.7036 36.3537 61.7296 33.9251 61.2597 32.7761C60.0852 30.0341 56.9783 28.4934 54.159 29.2507Z" fill="black"/>
<path d="M83.7371 29.1985C82.9542 29.4335 81.4921 30.3997 80.97 31.0265C80.239 31.8882 79.3516 34.0818 79.3516 35.0741C79.3516 37.6072 81.6488 40.4276 84.1551 40.9498C86.9222 41.5243 89.9768 39.6441 91.0732 36.6932C91.8043 34.7868 91.1777 32.6455 89.4025 30.8959C87.6792 29.1463 85.7735 28.5717 83.7371 29.1985Z" fill="black"/>
<path d="M14.3469 37.0588C12.2584 37.9206 9.96109 41.1066 6.80223 47.5046C3.46065 54.2157 1.68542 59.8042 0.615069 67.0639C-0.168116 72.3911 -0.194222 74.8195 0.48454 76.1516C1.92038 78.9455 5.05311 80.0948 7.61154 78.7891C9.93497 77.5878 10.6137 76.2821 11.1098 71.8948C11.6841 66.9853 12.4673 63.3293 13.8248 59.2297C15.3128 54.6857 16.7226 51.6305 19.4115 47.0865C21.3434 43.8223 21.5261 43.2741 21.3956 41.3416C21.3173 40.1663 20.1947 38.4167 19.0199 37.6333C17.8451 36.8499 15.4956 36.5626 14.3469 37.0588Z" fill="black"/>
<path d="M123.21 37.0588C121.069 37.9206 119.738 39.9313 119.738 42.2815C119.764 43.8745 120.156 44.7885 122.035 47.7655C126.029 53.9807 129.057 62.7812 129.997 70.9808C130.598 76.1516 131.277 77.7442 133.365 78.815C136.446 80.3821 140.727 78.1623 141.38 74.6891C141.641 73.2788 140.492 64.6874 139.5 60.8487C137.072 51.317 130.989 39.2001 127.674 37.346C126.577 36.7193 124.411 36.5888 123.21 37.0588Z" fill="black"/>
<path d="M38.2862 45.5198C31.6552 47.3478 29.4623 55.9392 34.3703 60.9269C36.8765 63.4602 40.1921 64.2433 43.4031 63.0684L45.1783 62.4154L46.6663 63.8516C48.2589 65.3923 49.512 66.2804 50.06 66.2804C50.791 66.2804 52.1487 65.4446 52.4358 64.8178C53.1406 63.2511 52.6444 62.1804 50.2427 59.9347L48.9636 58.7334L49.4598 57.3495C49.7728 56.4878 49.9555 55.2865 49.9555 54.1112C49.9555 52.4923 49.8514 51.996 48.9636 50.2462C48.1281 48.549 47.7105 48.0268 46.4051 47.0606C43.8988 45.2326 41.2099 44.7103 38.2862 45.5198Z" fill="black"/>
<path d="M97.9126 45.4935C95.4067 46.3293 93.0831 48.4968 92.039 51.0038C91.3339 52.6227 91.2034 55.2079 91.7255 57.01L92.1953 58.5244L86.7134 64.0084L81.2311 69.4923L80.3696 68.8133C79.0379 67.7948 75.801 66.3326 74.1562 65.9931C71.8849 65.5232 67.6034 65.8104 65.3061 66.6199C60.3981 68.317 56.4038 72.4693 54.6549 77.666C54.1588 79.1804 54.0284 80.0944 54.0284 82.2619C54.0284 85.3957 54.446 87.2759 55.6991 89.7829L56.5865 91.5323L51.8352 96.2854L47.0839 101.038L45.7263 100.124C42.3326 97.8521 37.5291 98.3743 34.6313 101.378C32.0207 104.041 31.2897 107.54 32.5167 111.301L32.9606 112.581L29.7234 115.818C27.9482 117.594 26.1729 119.266 25.8074 119.553L25.1026 120.075L23.5623 118.038C17.8712 110.7 13.8769 102.083 11.7362 92.6554C11.2924 90.7229 10.6658 88.6076 10.3526 87.9549C8.15967 83.6722 1.55479 84.3512 0.353904 88.9735C-0.0376887 90.5665 0.145054 92.2636 1.31983 97.0426C3.35612 105.451 7.42869 114.669 11.9451 121.12C15.5216 126.238 21.0822 132.244 25.5725 135.848C39.8526 147.26 58.7533 153.161 76.349 151.673C106.241 149.114 131.459 128.327 139.291 99.7583C140.57 95.0056 141.301 90.9842 141.092 89.6525C140.91 88.2944 140.153 87.1191 138.795 86.0224C137.438 84.9257 135.036 84.743 133.261 85.6047C131.877 86.2574 130.624 87.7982 130.285 89.2344C130.18 89.7566 129.684 91.7677 129.24 93.6998C127.126 102.579 123.523 110.23 117.989 117.594C116.97 118.952 116.083 120.075 116.03 120.075C115.9 120.075 108.329 112.528 108.329 112.397C108.329 112.346 108.59 111.745 108.904 111.04C109.347 110.074 109.478 109.264 109.504 107.671C109.504 105.869 109.399 105.347 108.747 104.041C106.215 98.8965 99.9231 97.0686 95.5894 100.229C94.9887 100.646 94.4144 101.012 94.284 101.012C94.1795 101.012 92.0127 98.9229 89.4542 96.3636L84.8074 91.7154L85.5644 90.1484C86.8961 87.485 87.4441 85.2912 87.4441 82.6278C87.4441 79.729 86.9742 77.7965 85.6166 75.0286L84.5725 72.9656L88.6972 68.8133C90.9426 66.5413 93.4485 64.1129 94.2581 63.4079L95.6939 62.1281L97.0252 62.7812C101.333 64.9224 106.867 62.7026 109.06 57.9499C109.635 56.7227 109.765 56.1219 109.765 54.268C109.765 52.4137 109.635 51.8133 109.06 50.5598C108.173 48.6536 106.345 46.8256 104.465 45.9634C102.664 45.154 99.6882 44.919 97.9126 45.4935ZM61.0247 96.2854C62.565 97.5126 64.3402 98.3221 67.7861 99.3147C68.1255 99.4188 68.2563 106.548 67.9691 109.995L67.8124 112.11L66.8201 112.581C65.1235 113.39 63.5046 115.009 62.5909 116.889C61.8339 118.43 61.7294 118.874 61.7294 120.728C61.7294 123.365 62.6172 125.507 64.4706 127.23C66.3243 128.98 67.8124 129.555 70.475 129.581C72.381 129.607 72.9031 129.502 74.2866 128.876C76.1922 127.988 77.7325 126.473 78.7507 124.514C79.3773 123.261 79.4818 122.791 79.4559 120.858C79.4559 119.057 79.325 118.378 78.7507 117.151C77.9415 115.348 76.0096 113.338 74.3648 112.581C73.5819 112.215 73.0857 111.797 72.9812 111.405C72.7727 110.622 72.7726 103.206 73.0076 100.934C73.138 99.3669 73.2161 99.1838 73.7123 99.1838C74.9913 99.1838 79.8471 96.9122 80.6567 95.9196C80.8394 95.7109 81.048 95.5278 81.1525 95.5278C81.2311 95.5278 82.4319 96.5986 83.7892 97.878C85.1468 99.1579 87.4441 101.299 88.9062 102.631L91.5428 105.06L91.5169 107.41C91.5169 109.395 91.621 109.995 92.1953 111.223C93.4748 113.99 95.7198 115.845 98.7481 116.576C100.367 116.994 100.602 116.967 102.116 116.576C103.03 116.341 103.891 116.106 104.048 116.08C104.387 116.027 112.245 123.365 112.245 123.731C112.245 124.123 106.789 128.379 103.499 130.573C93.9446 136.918 82.197 140.444 70.6058 140.444C57.422 140.444 44.4995 136.083 33.7959 128.04C31.4203 126.264 28.9663 124.044 28.9663 123.705C28.9663 123.339 30.8198 121.381 33.9526 118.482L36.7721 115.871L38.3645 116.445C42.3067 117.881 47.058 115.714 49.1204 111.51C49.9037 109.917 49.9818 109.577 49.9555 107.41L49.9296 105.06L54.7854 100.307C57.4484 97.6953 59.7456 95.5278 59.8501 95.5278C59.9805 95.5278 60.5026 95.8673 61.0247 96.2854Z" fill="black"/>
<path d="M29.5669 71.6076C27.1912 72.3648 25.2072 74.1668 24.1107 76.5952C23.5103 77.8751 23.3797 78.5541 23.3797 80.2512C23.3536 82.1055 23.4581 82.5492 24.2151 84.0899C25.2072 86.101 26.6169 87.485 28.6793 88.4249C30.7678 89.4175 33.7178 89.4175 35.7541 88.4512C37.5815 87.5895 38.9129 86.4405 39.7744 84.9516L40.4531 83.829L43.351 83.7245L46.2489 83.6463L47.0318 82.7582C47.6847 82.0269 47.7892 81.7397 47.6584 80.9566C47.5802 80.4339 47.2408 79.729 46.8755 79.3895C46.3012 78.7891 46.0399 78.7368 43.7163 78.7105L41.1842 78.6845L40.6098 77.3265C39.3567 74.3236 37.3726 72.3648 34.8926 71.6339C33.3001 71.1635 31.055 71.1635 29.5669 71.6076Z" fill="black"/>
<path d="M106.58 71.6076C103.787 72.5216 101.881 74.3755 100.837 77.2483L100.289 78.6845L97.6778 78.815C95.4327 78.9195 94.9629 79.024 94.3886 79.5199C93.3963 80.408 93.4486 81.9747 94.4931 83.0455L95.276 83.829L98.0435 83.7245C100.758 83.6463 100.837 83.6722 101.254 84.299C102.194 85.7874 104.309 87.7459 105.693 88.399C106.919 88.9994 107.494 89.1298 109.243 89.1298C110.992 89.1298 111.566 88.9994 112.819 88.399C114.725 87.4586 116.448 85.7615 117.388 83.829C118.015 82.5492 118.119 82.0269 118.119 80.1208C118.119 78.2146 118.015 77.6919 117.388 76.4125C115.822 73.2265 113.107 71.4508 109.635 71.3203C108.486 71.2681 107.207 71.3985 106.58 71.6076Z" fill="black"/>
</g>
<defs>
<clipPath id="clip0_18_25">
<rect width="141" height="152" fill="white"/>
</clipPath>
</defs>
</svg>
