<svg width="1369" height="381" viewBox="0 0 1369 381" fill="none" xmlns="http://www.w3.org/2000/svg">
<path d="M172.122 0.334927C165.708 1.31678 157.526 5.89875 153.14 10.808C148.623 15.9791 145.285 24.6848 145.285 31.296C145.285 43.9946 154.907 56.5623 167.737 60.6861C169.439 61.2752 170.29 61.9952 170.551 63.1734C170.813 64.0244 170.813 82.2868 170.617 103.757C170.159 145.714 170.159 145.714 173.497 148.071C175.788 149.642 178.341 149.38 180.763 147.22L182.923 145.322V103.822V62.3879L188.683 59.5733C204.327 52.1112 211.527 36.0743 206.225 20.692C202.887 11.0044 194.378 3.21502 184.494 0.858581C180.566 -0.0578136 175.788 -0.254184 172.122 0.334927Z" fill="black"/>
<path d="M108.891 32.867C105.029 34.1106 90.6288 41.7036 83.8867 46.0892C71.9736 53.8786 58.4895 65.5299 56.1331 70.2428C52.0748 78.163 57.3113 87.9815 65.9516 88.7016C69.7481 89.0288 72.1045 87.7197 82.5121 79.4722C91.807 72.141 100.316 66.5772 110.266 61.4061C118.775 56.955 122.31 54.0749 124.339 49.9512C127.481 43.471 124.47 35.8125 117.662 32.9324C114.782 31.7542 112.557 31.7542 108.891 32.867Z" fill="black"/>
<path d="M237.383 32.6051C230.183 34.7651 226.452 43.5363 229.659 50.6057C231.361 54.4022 234.699 57.0204 243.536 61.406C252.765 65.988 263.893 73.4501 273.908 81.6976C281.762 88.1778 284.25 89.2906 289.028 88.5706C291.646 88.1778 292.759 87.5233 295.247 85.1014C300.352 79.9957 300.941 74.2356 297.014 68.3444C294.985 65.2025 286.541 57.675 278.162 51.4566C265.726 42.1617 245.303 31.7541 240.263 32.016C239.674 32.016 238.365 32.3432 237.383 32.6051Z" fill="black"/>
<path d="M135.794 73.3192C132.325 74.301 126.695 79.9303 125.714 83.3995C123.554 91.1234 126.761 98.1928 134.092 101.989C136.645 103.298 142.601 103.037 145.612 101.466C148.623 99.8946 151.896 96.6872 153.402 93.6762C154.711 91.1234 154.776 85.0359 153.598 82.1558C150.653 75.2829 142.863 71.4209 135.794 73.3192Z" fill="black"/>
<path d="M209.956 73.1883C207.993 73.7774 204.327 76.1993 203.018 77.7703C201.185 79.9303 198.96 85.4287 198.96 87.9161C198.96 94.2654 204.72 101.335 211.004 102.644C217.942 104.084 225.601 99.371 228.35 91.9744C230.183 87.196 228.612 81.8286 224.161 77.443C219.84 73.0574 215.062 71.6173 209.956 73.1883Z" fill="black"/>
<path d="M35.9724 92.8908C30.7359 95.0509 24.9757 103.037 17.0554 119.074C8.67697 135.896 4.22591 149.904 1.54218 168.101C-0.421521 181.454 -0.486978 187.541 1.2149 190.88C4.81502 197.883 12.6698 200.764 19.0846 197.491C24.9102 194.48 26.6121 191.207 27.8558 180.21C29.2958 167.904 31.2595 158.74 34.6633 148.464C38.3943 137.074 41.929 129.416 48.671 118.026C53.5148 109.844 53.973 108.47 53.6458 103.626C53.4494 100.68 50.6347 96.2946 47.6892 94.3309C44.7436 92.3672 38.8525 91.6471 35.9724 92.8908Z" fill="black"/>
<path d="M308.927 92.8908C303.56 95.0509 300.221 100.091 300.221 105.982C300.287 109.975 301.269 112.266 305.982 119.728C315.996 135.307 323.589 157.366 325.946 177.919C327.451 190.88 329.153 194.872 334.39 197.556C342.114 201.484 352.849 195.92 354.485 187.214C355.14 183.679 352.259 162.144 349.772 152.522C343.685 128.63 328.433 98.2582 320.12 93.6108C317.371 92.0398 311.938 91.7126 308.927 92.8908Z" fill="black"/>
<path d="M95.9963 114.099C79.3703 118.681 73.8719 140.216 86.1778 152.718C92.4616 159.068 100.775 161.031 108.826 158.086L113.277 156.449L117.008 160.049C121.001 163.911 124.143 166.137 125.517 166.137C127.35 166.137 130.754 164.042 131.474 162.471C133.241 158.544 131.997 155.86 125.975 150.231L122.768 147.22L124.012 143.751C124.797 141.591 125.255 138.58 125.255 135.634C125.255 131.576 124.994 130.332 122.768 125.946C120.673 121.692 119.626 120.383 116.353 117.961C110.069 113.379 103.327 112.07 95.9963 114.099Z" fill="black"/>
<path d="M245.499 114.033C239.216 116.128 233.39 121.561 230.772 127.845C229.004 131.903 228.677 138.383 229.986 142.9L231.164 146.696L217.419 160.442L203.673 174.188L201.513 172.486C198.174 169.933 190.058 166.268 185.934 165.417C180.239 164.239 169.504 164.959 163.744 166.988C151.438 171.242 141.423 181.65 137.038 194.676C135.794 198.472 135.467 200.763 135.467 206.196C135.467 214.051 136.514 218.764 139.656 225.048L141.881 229.433L129.968 241.347L118.055 253.26L114.651 250.969C106.142 245.274 94.098 246.583 86.8323 254.111C80.2866 260.787 78.4538 269.558 81.5303 278.984L82.6431 282.192L74.5264 290.308C70.0754 294.759 65.6243 298.949 64.7079 299.669L62.9406 300.978L59.0787 295.872C44.8091 277.479 34.7942 255.878 29.4267 232.248C28.314 227.404 26.743 222.102 25.9575 220.466C20.4592 209.731 3.89861 211.433 0.887604 223.019C-0.0942468 227.012 0.36395 231.266 3.3095 243.245C8.41513 264.322 18.6264 287.428 29.9504 303.596C38.918 316.426 52.8603 331.481 64.1188 340.514C99.9237 369.118 147.314 383.911 191.432 380.18C266.38 373.766 329.611 321.662 349.248 250.052C352.456 238.139 354.289 228.059 353.765 224.721C353.307 221.317 351.409 218.371 348.005 215.622C344.601 212.873 338.579 212.415 334.128 214.575C330.659 216.211 327.517 220.073 326.666 223.673C326.404 224.982 325.16 230.023 324.048 234.866C318.746 257.122 309.713 276.301 295.836 294.759C293.283 298.163 291.057 300.978 290.926 300.978C290.599 300.978 271.617 282.061 271.617 281.733C271.617 281.603 272.271 280.097 273.057 278.33C274.17 275.908 274.497 273.879 274.562 269.886C274.562 265.369 274.3 264.06 272.664 260.787C266.315 247.892 250.54 243.31 239.674 251.231C238.168 252.278 236.728 253.194 236.401 253.194C236.139 253.194 230.706 247.958 224.291 241.543L212.64 229.892L214.538 225.964C217.877 219.288 219.251 213.789 219.251 207.113C219.251 199.847 218.073 195.003 214.669 188.065L212.051 182.894L222.393 172.486C228.023 166.791 234.306 160.704 236.336 158.937L239.936 155.729L243.274 157.366C254.074 162.733 267.951 157.169 273.45 145.256C274.89 142.18 275.217 140.674 275.217 136.027C275.217 131.379 274.89 129.874 273.45 126.732C271.224 121.954 266.642 117.372 261.929 115.211C257.413 113.182 249.951 112.593 245.499 114.033ZM153.009 241.347C156.871 244.423 161.322 246.452 169.962 248.94C170.813 249.201 171.141 267.071 170.421 275.711L170.028 281.013L167.54 282.192C163.286 284.221 159.227 288.279 156.936 292.992C155.038 296.854 154.776 297.967 154.776 302.614C154.776 309.225 157.002 314.593 161.649 318.913C166.297 323.298 170.028 324.739 176.704 324.804C181.483 324.869 182.792 324.608 186.261 323.037C191.039 320.811 194.901 317.015 197.454 312.105C199.025 308.963 199.287 307.785 199.222 302.941C199.222 298.425 198.894 296.723 197.454 293.647C195.425 289.13 190.581 284.09 186.457 282.192C184.494 281.275 183.25 280.228 182.988 279.246C182.465 277.282 182.465 258.693 183.054 252.998C183.381 249.071 183.577 248.612 184.821 248.612C188.028 248.612 200.203 242.918 202.233 240.43C202.691 239.907 203.214 239.448 203.476 239.448C203.673 239.448 206.684 242.132 210.087 245.339C213.491 248.547 219.251 253.914 222.917 257.253L229.528 263.34L229.463 269.231C229.463 274.206 229.724 275.711 231.164 278.788C234.372 285.726 240.001 290.374 247.594 292.207C251.652 293.254 252.242 293.188 256.038 292.207C258.329 291.617 260.489 291.028 260.882 290.963C261.733 290.832 281.435 309.225 281.435 310.142C281.435 311.124 267.755 321.793 259.507 327.291C235.55 343.197 206.095 352.034 177.032 352.034C143.976 352.034 111.575 341.103 84.7377 320.942C78.7811 316.491 72.6282 310.927 72.6282 310.076C72.6282 309.16 77.2756 304.251 85.1304 296.985L92.1998 290.439L96.1926 291.879C106.077 295.479 117.99 290.046 123.161 279.508C125.125 275.515 125.321 274.664 125.255 269.231L125.19 263.34L137.365 251.427C144.042 244.881 149.802 239.448 150.064 239.448C150.391 239.448 151.7 240.299 153.009 241.347Z" fill="black"/>
<path d="M74.1337 179.49C68.1772 181.388 63.2025 185.905 60.4533 191.992C58.9478 195.2 58.6205 196.902 58.6205 201.156C58.555 205.804 58.8169 206.916 60.7151 210.778C63.2025 215.819 66.7371 219.288 71.9082 221.644C77.1447 224.132 84.5414 224.132 89.647 221.71C94.229 219.55 97.5673 216.67 99.7273 212.938L101.429 210.124L108.695 209.862L115.961 209.666L117.924 207.44C119.561 205.607 119.823 204.887 119.495 202.924C119.299 201.614 118.448 199.847 117.532 198.996C116.092 197.491 115.437 197.36 109.611 197.294L103.262 197.229L101.822 193.825C98.68 186.298 93.7053 181.388 87.4869 179.556C83.4941 178.377 77.8648 178.377 74.1337 179.49Z" fill="black"/>
<path d="M267.231 179.49C260.227 181.781 255.449 186.428 252.831 193.629L251.456 197.229L244.91 197.556C239.281 197.818 238.103 198.08 236.663 199.323C234.175 201.549 234.306 205.476 236.925 208.16L238.888 210.124L245.827 209.862C252.634 209.666 252.831 209.731 253.878 211.302C256.234 215.033 261.536 219.942 265.006 221.579C268.082 223.084 269.522 223.411 273.908 223.411C278.293 223.411 279.733 223.084 282.875 221.579C287.654 219.222 291.974 214.968 294.33 210.124C295.901 206.916 296.163 205.607 296.163 200.829C296.163 196.051 295.901 194.741 294.33 191.534C290.403 183.548 283.595 179.097 274.89 178.77C272.009 178.639 268.802 178.966 267.231 179.49Z" fill="black"/>
<path d="M394.148 204.088C394.148 193.272 396.488 183.652 401.168 175.228C405.848 166.7 412.348 160.096 420.668 155.416C429.092 150.632 438.608 148.24 449.216 148.24C462.216 148.24 473.344 151.672 482.6 158.536C491.856 165.4 498.044 174.76 501.164 186.616H471.836C469.652 182.04 466.532 178.556 462.476 176.164C458.524 173.772 454 172.576 448.904 172.576C440.688 172.576 434.032 175.436 428.936 181.156C423.84 186.876 421.292 194.52 421.292 204.088C421.292 213.656 423.84 221.3 428.936 227.02C434.032 232.74 440.688 235.6 448.904 235.6C454 235.6 458.524 234.404 462.476 232.012C466.532 229.62 469.652 226.136 471.836 221.56H501.164C498.044 233.416 491.856 242.776 482.6 249.64C473.344 256.4 462.216 259.78 449.216 259.78C438.608 259.78 429.092 257.44 420.668 252.76C412.348 247.976 405.848 241.372 401.168 232.948C396.488 224.524 394.148 214.904 394.148 204.088ZM544.176 186.46C547.296 181.676 551.196 177.932 555.876 175.228C560.556 172.42 565.756 171.016 571.476 171.016V199.252H564.144C557.488 199.252 552.496 200.708 549.168 203.62C545.84 206.428 544.176 211.42 544.176 218.596V259H517.5V171.952H544.176V186.46ZM623.851 260.248C615.323 260.248 607.627 258.428 600.763 254.788C594.003 251.148 588.647 245.948 584.695 239.188C580.847 232.428 578.923 224.524 578.923 215.476C578.923 206.532 580.899 198.68 584.851 191.92C588.803 185.056 594.211 179.804 601.075 176.164C607.939 172.524 615.635 170.704 624.163 170.704C632.691 170.704 640.387 172.524 647.251 176.164C654.115 179.804 659.523 185.056 663.475 191.92C667.427 198.68 669.403 206.532 669.403 215.476C669.403 224.42 667.375 232.324 663.319 239.188C659.367 245.948 653.907 251.148 646.939 254.788C640.075 258.428 632.379 260.248 623.851 260.248ZM623.851 237.16C628.947 237.16 633.263 235.288 636.799 231.544C640.439 227.8 642.259 222.444 642.259 215.476C642.259 208.508 640.491 203.152 636.955 199.408C633.523 195.664 629.259 193.792 624.163 193.792C618.963 193.792 614.647 195.664 611.215 199.408C607.783 203.048 606.067 208.404 606.067 215.476C606.067 222.444 607.731 227.8 611.059 231.544C614.491 235.288 618.755 237.16 623.851 237.16ZM808.511 171.952L784.955 259H755.471L741.743 202.528L727.547 259H698.219L674.507 171.952H701.183L713.507 234.196L728.171 171.952H756.407L771.227 233.884L783.395 171.952H808.511ZM813.38 215.32C813.38 206.376 815.044 198.524 818.372 191.764C821.804 185.004 826.432 179.804 832.256 176.164C838.08 172.524 844.58 170.704 851.756 170.704C857.476 170.704 862.676 171.9 867.356 174.292C872.14 176.684 875.884 179.908 878.588 183.964V143.56H905.264V259H878.588V246.52C876.092 250.68 872.504 254.008 867.824 256.504C863.248 259 857.892 260.248 851.756 260.248C844.58 260.248 838.08 258.428 832.256 254.788C826.432 251.044 821.804 245.792 818.372 239.032C815.044 232.168 813.38 224.264 813.38 215.32ZM878.588 215.476C878.588 208.82 876.716 203.568 872.972 199.72C869.332 195.872 864.86 193.948 859.556 193.948C854.252 193.948 849.728 195.872 845.984 199.72C842.344 203.464 840.524 208.664 840.524 215.32C840.524 221.976 842.344 227.28 845.984 231.232C849.728 235.08 854.252 237.004 859.556 237.004C864.86 237.004 869.332 235.08 872.972 231.232C876.716 227.384 878.588 222.132 878.588 215.476ZM1027.37 149.488L988.523 259H955.139L916.295 149.488H944.687L971.831 232.168L999.131 149.488H1027.37ZM1051.93 162.904C1047.25 162.904 1043.4 161.552 1040.39 158.848C1037.48 156.04 1036.02 152.608 1036.02 148.552C1036.02 144.392 1037.48 140.96 1040.39 138.256C1043.4 135.448 1047.25 134.044 1051.93 134.044C1056.51 134.044 1060.25 135.448 1063.16 138.256C1066.18 140.96 1067.69 144.392 1067.69 148.552C1067.69 152.608 1066.18 156.04 1063.16 158.848C1060.25 161.552 1056.51 162.904 1051.93 162.904ZM1065.19 171.952V259H1038.52V171.952H1065.19ZM1117.6 170.704C1123.73 170.704 1129.09 171.952 1133.66 174.448C1138.34 176.944 1141.93 180.22 1144.43 184.276V171.952H1171.1V258.844C1171.1 266.852 1169.49 274.08 1166.27 280.528C1163.15 287.08 1158.31 292.28 1151.76 296.128C1145.31 299.976 1137.25 301.9 1127.58 301.9C1114.68 301.9 1104.23 298.832 1096.22 292.696C1088.22 286.664 1083.64 278.448 1082.5 268.048H1108.86C1109.69 271.376 1111.67 273.976 1114.79 275.848C1117.91 277.824 1121.76 278.812 1126.33 278.812C1131.84 278.812 1136.21 277.2 1139.44 273.976C1142.76 270.856 1144.43 265.812 1144.43 258.844V246.52C1141.83 250.576 1138.24 253.904 1133.66 256.504C1129.09 259 1123.73 260.248 1117.6 260.248C1110.42 260.248 1103.92 258.428 1098.1 254.788C1092.27 251.044 1087.64 245.792 1084.21 239.032C1080.88 232.168 1079.22 224.264 1079.22 215.32C1079.22 206.376 1080.88 198.524 1084.21 191.764C1087.64 185.004 1092.27 179.804 1098.1 176.164C1103.92 172.524 1110.42 170.704 1117.6 170.704ZM1144.43 215.476C1144.43 208.82 1142.56 203.568 1138.81 199.72C1135.17 195.872 1130.7 193.948 1125.4 193.948C1120.09 193.948 1115.57 195.872 1111.82 199.72C1108.18 203.464 1106.36 208.664 1106.36 215.32C1106.36 221.976 1108.18 227.28 1111.82 231.232C1115.57 235.08 1120.09 237.004 1125.4 237.004C1130.7 237.004 1135.17 235.08 1138.81 231.232C1142.56 227.384 1144.43 222.132 1144.43 215.476ZM1230.03 260.248C1221.5 260.248 1213.8 258.428 1206.94 254.788C1200.18 251.148 1194.82 245.948 1190.87 239.188C1187.02 232.428 1185.1 224.524 1185.1 215.476C1185.1 206.532 1187.07 198.68 1191.03 191.92C1194.98 185.056 1200.39 179.804 1207.25 176.164C1214.11 172.524 1221.81 170.704 1230.34 170.704C1238.87 170.704 1246.56 172.524 1253.43 176.164C1260.29 179.804 1265.7 185.056 1269.65 191.92C1273.6 198.68 1275.58 206.532 1275.58 215.476C1275.58 224.42 1273.55 232.324 1269.49 239.188C1265.54 245.948 1260.08 251.148 1253.11 254.788C1246.25 258.428 1238.55 260.248 1230.03 260.248ZM1230.03 237.16C1235.12 237.16 1239.44 235.288 1242.97 231.544C1246.61 227.8 1248.43 222.444 1248.43 215.476C1248.43 208.508 1246.67 203.152 1243.13 199.408C1239.7 195.664 1235.43 193.792 1230.34 193.792C1225.14 193.792 1220.82 195.664 1217.39 199.408C1213.96 203.048 1212.24 208.404 1212.24 215.476C1212.24 222.444 1213.91 227.8 1217.23 231.544C1220.67 235.288 1224.93 237.16 1230.03 237.16Z" fill="black"/>
</svg>
